<svg t="1701770978279" class="icon" viewBox="0 0 1024 1024" version="1.1" xmlns="http://www.w3.org/2000/svg" p-id="3560" width="200" height="200"><path d="M208.979592 1024h606.040816c115.461224 0 208.979592-93.518367 208.979592-208.979592V208.979592C1024 93.518367 930.481633 0 815.020408 0H208.979592C93.518367 0 0 93.518367 0 208.979592v606.040816c0 115.461224 93.518367 208.979592 208.979592 208.979592z" fill="#00005B" p-id="3561"></path><path d="M410.435918 632.163265H246.073469l-33.854693 102.922449c-0.940408 3.866122-4.493061 6.582857-8.463674 6.373878h-83.382857c-4.702041 0-6.373878-2.612245-4.911021-7.732245L258.403265 329.142857c1.462857-4.284082 2.821224-8.045714 4.284082-13.479184 1.880816-9.404082 2.821224-18.912653 2.821224-28.525714-0.20898-1.358367 0.313469-2.716735 1.253878-3.761632 1.044898-0.940408 2.403265-1.358367 3.761633-1.253878h113.162449c3.343673 0 5.22449 1.253878 5.746938 3.552653l161.018776 448.679184c1.358367 4.702041 0 7.105306-4.284082 7.105306h-92.577959a6.635102 6.635102 0 0 1-7.105306-4.911021z m-26.017959-87.04c-2.821224-9.404082-6.164898-19.957551-9.92653-31.764898-3.866122-11.702857-7.836735-24.346122-12.120817-37.720816l-12.852245-40.228571c-4.284082-13.479184-8.150204-26.435918-11.702857-38.870204-3.552653-12.434286-6.791837-23.928163-9.613061-34.272654h-0.731429c-3.970612 19.121633-8.986122 37.929796-14.94204 56.52898-6.687347 21.106939-13.374694 42.840816-20.271021 64.888163-6.896327 22.151837-13.688163 42.631837-20.27102 61.44z m215.875919 189.64898V474.488163c0-7.941224-0.10449-16.927347-0.41796-26.749387a754.416327 754.416327 0 0 0-1.044898-28.212245c-0.417959-8.986122-0.940408-17.240816-1.462857-22.465307a4.534857 4.534857 0 0 1 0.731429-4.284081c1.149388-0.940408 2.716735-1.462857 4.284081-1.358367h71.053062c2.507755-0.10449 4.91102 0.417959 7.105306 1.358367 1.985306 1.044898 3.343673 2.821224 3.657143 5.01551 0.940408 2.821224 1.985306 5.955918 3.134694 9.508571 1.358367 4.702041 2.194286 9.508571 2.507755 14.315103 13.792653-12.016327 29.675102-21.211429 47.020408-27.167347 17.136327-5.955918 35.213061-8.881633 53.394286-8.881633 14.106122 0.10449 28.212245 2.403265 41.586938 6.687347 31.451429 10.03102 56.42449 34.063673 67.291429 64.992653 7.105306 18.076735 9.926531 41.586939 9.92653 70.217143v207.307755c0 4.179592-1.880816 6.269388-5.746938 6.269388l-83.173878 0.731428a6.373878 6.373878 0 0 1-5.328979-1.671837 6.791837 6.791837 0 0 1-1.776327-5.328979V538.122449c-0.20898-13.165714-3.134694-26.122449-8.568163-38.138776-3.866122-8.881633-10.13551-16.509388-18.181225-21.942857-9.090612-5.433469-19.644082-8.150204-30.197551-7.732245-11.493878-0.20898-22.883265 1.880816-33.541224 5.955919-9.717551 3.866122-18.599184 9.508571-26.331429 16.613877v241.893878c0 4.179592-1.880816 6.269388-5.642449 6.269388h-83.905306a5.464816 5.464816 0 0 1-4.806531-1.567347 5.360327 5.360327 0 0 1-1.567346-4.702041z" fill="#9999FF" p-id="3562"></path></svg>