<svg t="1701662944243" class="icon" viewBox="0 0 1024 1024" version="1.1" xmlns="http://www.w3.org/2000/svg" p-id="8262" width="200" height="200"><path d="M639.4 701L454.7 884c-79.8 79.1-208.5 78.5-287.6-1.3l-27.3-27.6c-79.1-79.8-78.5-208.5 1.3-287.6l184.7-183L639.4 701z" fill="#C0C3C6" p-id="8263"></path><path d="M325 958.8c-4.8 0.3-9.6 0.4-14.5 0.4-58.7-0.3-113.7-23.4-155-65.1l-27.3-27.6C86.9 824.9 64.4 769.7 64.6 711c0.3-58.7 23.4-113.7 65.1-155l184.7-183c6.4-6.3 16.7-6.3 23 0.1L651 689.6c3 3.1 4.7 7.2 4.7 11.5s-1.8 8.4-4.8 11.5l-184.7 183c-38.3 37.9-87.9 60-141.2 63.2z m0.7-551.2L152.6 579.1c-35.5 35.2-55.2 82.1-55.4 132-0.2 50 19 97 54.2 132.5l27.3 27.6c35.2 35.5 82.1 55.2 132.1 55.4 50 0.2 97-19 132.5-54.2l173.1-171.6-290.7-293.2zM846.2 338.7c-3.5 0.2-7 0.3-10.5 0.3-42.4-0.2-82.3-16.9-112.1-47-29.9-30.1-46.2-70.1-46-112.5 0.2-42.4 16.9-82.2 47-112.1 6.4-6.3 16.7-6.3 23 0.1L948.4 270c6.3 6.4 6.3 16.7-0.1 23-27.7 27.4-63.6 43.4-102.1 45.7zM736.8 102.6c-17.1 21.9-26.4 48.7-26.6 77-0.2 33.7 12.8 65.5 36.6 89.5s55.4 37.3 89.1 37.4c28.3 0.1 55.1-9 77.2-25.9l-176.3-178z" fill="#2E3742" p-id="8264"></path><path d="M319 722.1c-4.5 0.3-9.1-1.3-12.5-4.8-6.3-6.4-6.3-16.7 0.1-23L730 274.8c6.4-6.3 16.7-6.3 23 0.1 6.3 6.4 6.3 16.7-0.1 23L329.5 717.4c-2.9 2.9-6.7 4.5-10.5 4.7z" fill="#2E3742" p-id="8265"></path></svg>