<svg t="1701703577321" class="icon" viewBox="0 0 1024 1024" version="1.1" xmlns="http://www.w3.org/2000/svg" p-id="3947" width="200" height="200"><path d="M916.6 65.1h-803c-27.5 0-50 22.5-50 50v548c0 27.5 22.5 50 50 50h362.6V834h-152c-19 0-34.5 15.5-34.5 34.5s15.5 34.5 34.5 34.5h382c19 0 34.5-15.5 34.5-34.5S725.2 834 706.2 834h-152V713.1h362.3c27.5 0 50-22.5 50-50v-548c0.1-27.5-22.4-50-49.9-50z m0 597.9c-0.1 0-0.1 0.1 0 0l-802.9 0.1-0.1-0.1V115.2l0.1-0.1h802.8l0.1 0.1V663z" fill="#3F3F3F" p-id="3948"></path></svg>