<svg t="1701662881455" class="icon" viewBox="0 0 1024 1024" version="1.1" xmlns="http://www.w3.org/2000/svg" p-id="6528" width="200" height="200"><path d="M475.733333 714.666667h-2.133333c-8.533333-2.133333-17.066667-6.4-19.2-14.933334l-74.666667-224-61.866666 78.933334c-4.266667 6.4-10.666667 8.533333-19.2 8.533333H59.733333c-12.8 0-23.466667-10.666667-23.466666-23.466667s10.666667-23.466667 23.466666-23.466666h228.266667l83.2-106.666667c4.266667-6.4 14.933333-10.666667 23.466667-8.533333 8.533333 2.133333 14.933333 8.533333 19.2 14.933333l72.533333 219.733333 76.8-117.333333c4.266667-8.533333 12.8-10.666667 21.333333-10.666667s17.066667 6.4 19.2 14.933334l25.6 70.4 42.666667-68.266667c4.266667-6.4 12.8-10.666667 19.2-10.666667h298.666667c12.8 0 23.466667 10.666667 23.466666 23.466667s-10.666667 23.466667-23.466666 23.466667H701.866667L640 659.2c-4.266667 8.533333-12.8 12.8-21.333333 10.666667-8.533333 0-17.066667-6.4-19.2-14.933334l-25.6-70.4-78.933334 119.466667c-4.266667 6.4-10.666667 10.666667-19.2 10.666667z" fill="#4A79DE" p-id="6529"></path><path d="M121.6 430.933333c10.666667 0 19.2-6.4 21.333333-17.066666C196.266667 256 345.6 140.8 522.666667 140.8S851.2 256 902.4 416c4.266667 10.666667 12.8 17.066667 21.333333 17.066667 17.066667 0 27.733333-14.933333 21.333334-32-55.466667-179.2-224-307.2-422.4-307.2s-364.8 128-424.533334 307.2c-4.266667 14.933333 6.4 29.866667 23.466667 29.866666zM925.866667 650.666667c-10.666667 0-19.2 6.4-21.333334 17.066666-53.333333 160-202.666667 275.2-379.733333 275.2S196.266667 827.733333 142.933333 667.733333c-4.266667-10.666667-12.8-17.066667-21.333333-17.066666-17.066667 0-27.733333 14.933333-21.333333 32 57.6 177.066667 224 307.2 422.4 307.2s366.933333-128 424.533333-307.2c6.4-14.933333-4.266667-32-21.333333-32z" fill="#546178" p-id="6530"></path></svg>